<svg xmlns:xlink="http://www.w3.org/1999/xlink" height="80" viewBox="0 0 73 80" fill="none" xmlns="http://www.w3.org/2000/svg" width="73" >
                        <path d="M28.3333 0C43.9333 0 56.3333 12.4 56.3333 28C56.3333 37.6 51.5333 46 44.3333 50.8V60C44.3333 62.4 42.7333 64 40.3333 64H16.3333C13.9333 64 12.3333 62.4 12.3333 60V50.8C5.13331 46 0.333313 37.6 0.333313 28C0.333313 12.4 12.7333 0 28.3333 0ZM16.3333 76V72H40.3333V76C40.3333 78.4 38.7333 80 36.3333 80H20.3333C17.9333 80 16.3333 78.4 16.3333 76ZM28.3333 8C17.1333 8 8.33331 16.8 8.33331 28C8.33331 36.4 13.1333 43.2 20.3333 46.4V56H36.3333V46.4C43.5333 43.2 48.3333 36.4 48.3333 28C48.3333 16.8 39.5333 8 28.3333 8ZM64.3333 40V20H72.3333V44H64.3333M64.3333 60V52H72.3333V60H64.3333Z" fill="#333333"></path>
                    </svg>