<svg xmlns:xlink="http://www.w3.org/1999/xlink" height="81" viewBox="0 0 88 81" fill="none" xmlns="http://www.w3.org/2000/svg" width="88" >
                        <path d="M66 54.5C66 58.94 62.44 62.5 58 62.5C53.56 62.5 50 58.94 50 54.5C50 50.06 53.6 46.5 58 46.5C62.4 46.5 66 50.1 66 54.5ZM30 46.5C25.6 46.5 22 50.1 22 54.5C22 58.9 25.6 62.5 30 62.5C34.4 62.5 38 58.94 38 54.5C38 50.06 34.44 46.5 30 46.5ZM88 52.5V64.5C88 66.7 86.2 68.5 84 68.5H80V72.5C80 76.94 76.44 80.5 72 80.5H16C11.6 80.5 7.99998 76.94 7.99998 72.5V68.5H3.99998C1.79998 68.5 -1.52588e-05 66.7 -1.52588e-05 64.5V52.5C-1.52588e-05 50.3 1.79998 48.5 3.99998 48.5H7.99998C7.99998 33.02 20.52 20.5 36 20.5H40V15.42C37.6 14.06 36 11.46 36 8.5C36 4.1 39.6 0.5 44 0.5C48.4 0.5 52 4.1 52 8.5C52 11.46 50.4 14.06 48 15.42V20.5H52C67.48 20.5 80 33.02 80 48.5H84C86.2 48.5 88 50.3 88 52.5ZM80 56.5H72V48.5C72 37.46 63.04 28.5 52 28.5H36C24.96 28.5 16 37.46 16 48.5V56.5H7.99998V60.5H16V72.5H72V60.5H80V56.5Z" fill="#333333"></path>
                    </svg>